inDegrees=no
num_controls=7
num_derivatives=13
num_iterations=47
num_multipliers=7
num_parameters=0
num_slacks=7
num_states=26
objective=0.471898
objective_accelerations=0.062736
objective_balance=0.000928
objective_effort=0.017887
objective_height=0.381178
objective_ligament=0.009169
solver_duration=643.949017
status=Solve_Succeeded
success=true
DataType=double
version=3
OpenSimVersion=4.5
endheader
time	/jointset/ground_pelvis/pelvis_tilt/value	/jointset/ground_pelvis/pelvis_tx/value	/jointset/ground_pelvis/pelvis_ty/value	/jointset/hip_l/hip_flexion_l/value	/jointset/hip_l/hip_adduction_l/value	/jointset/hip_l/hip_rotation_l/value	/jointset/back/lumbar_extension/value	/jointset/patellofemoral_l/patellar_flexion_l/value	/jointset/knee_l/knee_flexion_l/value	/jointset/knee_l/knee_adduction_l/value	/jointset/knee_l/knee_rotation_l/value	/jointset/ankle_l/ankle_angle_l/value	/jointset/subtalar_l/subtalar_angle_l/value	/jointset/ground_pelvis/pelvis_tilt/speed	/jointset/ground_pelvis/pelvis_tx/speed	/jointset/ground_pelvis/pelvis_ty/speed	/jointset/hip_l/hip_flexion_l/speed	/jointset/hip_l/hip_adduction_l/speed	/jointset/hip_l/hip_rotation_l/speed	/jointset/back/lumbar_extension/speed	/jointset/patellofemoral_l/patellar_flexion_l/speed	/jointset/knee_l/knee_flexion_l/speed	/jointset/knee_l/knee_adduction_l/speed	/jointset/knee_l/knee_rotation_l/speed	/jointset/ankle_l/ankle_angle_l/speed	/jointset/subtalar_l/subtalar_angle_l/speed	/forceset/tau_hip_flexion_l	/forceset/tau_hip_adduction_l	/forceset/tau_hip_rotation_l	/forceset/tau_knee_flexion_l	/forceset/tau_ankle_angle_l	/forceset/tau_subtalar_angle_l	/forceset/tau_lumbar_extension	lambda_cid13_p0	lambda_cid13_p1	lambda_cid13_p2	lambda_cid13_p3	lambda_cid13_p4	lambda_cid13_p5	lambda_cid14_p0	/jointset/ground_pelvis/pelvis_tilt/accel	/jointset/ground_pelvis/pelvis_tx/accel	/jointset/ground_pelvis/pelvis_ty/accel	/jointset/hip_l/hip_flexion_l/accel	/jointset/hip_l/hip_adduction_l/accel	/jointset/hip_l/hip_rotation_l/accel	/jointset/back/lumbar_extension/accel	/jointset/patellofemoral_l/patellar_flexion_l/accel	/jointset/knee_l/knee_flexion_l/accel	/jointset/knee_l/knee_adduction_l/accel	/jointset/knee_l/knee_rotation_l/accel	/jointset/ankle_l/ankle_angle_l/accel	/jointset/subtalar_l/subtalar_angle_l/accel	gamma_cid13_p0	gamma_cid13_p1	gamma_cid13_p2	gamma_cid13_p3	gamma_cid13_p4	gamma_cid13_p5	gamma_cid14_p0
1.5	-0.4678912589946558	0.01236385476154302	0.7964040960819856	1.107766523785738	-0.3443000271126754	-0.08084075728540017	-0.3359031614360075	0.6782664369040687	0.6782664369040191	-0.03667223138076552	-0.1597864987711719	0.1474622521265041	0.1243494289136646	0.8562101724792485	0.3566658010688769	0.4587716044010549	-2.572402196029007	0.03517904530492979	-0.5294275413304953	0.6072490334947482	-1.836327382269206	-1.836327382269203	-0.1713350941846443	0.07985167120453032	-0.2404315117941077	-0.03592815595413619	-0.1780935686966542	0.0681140917929991	0.003268462870381066	-0.07878933884754097	-0.014714478771292	-0.01830493516309237	0.1521296966165654	-30.28333862367645	11.35318105553024	0.07814887888039572	-1.740421779752064	-431.466861842858	-27.61562074694194	-15.51907348697407	0.7596342809945605	0.6528373691216938	-0.6248235819440938	-1.480100319622526	0.355571345273856	-0.08226131449713452	1.708385633385992	-0.8366885161604048	-0.8366885161604087	-0.1666266250557921	0.3546153000191449	-0.1056390265592023	0.3807311502230016	3.295391204190765e-08	2.155991089398753e-06	-8.630282739790071e-07	2.959350960163363e-07	4.350757766544312e-07	6.156386039852293e-07	3.348293475812688e-07
1.51	-0.4592919071632961	0.01596269384093111	0.8009596715594172	1.08197101458999	-0.343931473342622	-0.08614281957366605	-0.3297470757862883	0.6598634014914693	0.6598634014911406	-0.03839346405023397	-0.1589748859106405	0.145052773798586	0.1240080688937659	0.8635186503890012	0.3630463953134676	0.4522467046944229	-2.586335658596461	0.0385132800536658	-0.5308456996130202	0.6238597184584571	-1.844033167857281	-1.844033167857267	-0.1729716046103144	0.08251721708074129	-0.2414282348435948	-0.03235802618565527	-0.1719368955482098	0.06675373842591996	0.003946348680107568	-0.07744728189768309	-0.01502468520530455	-0.01919698481157437	0.1474273968860911	-30.26488533738245	11.59968068689251	0.1961210884481253	-1.417028285319706	-428.042608880095	-27.63656552870145	-16.22165052125243	0.6952092522016642	0.6224400803353388	-0.6808139682180632	-1.29538715104611	0.3190154332964126	-0.1505168871102631	1.621153228736271	-0.7005822723087698	-0.7005822723072181	-0.1705568696322464	0.2296192660708316	-0.09120430371059363	0.342368005833831	-1.335898283296446e-07	2.98495708446109e-06	4.0120402065112e-07	4.720358587999058e-07	2.375379116027887e-07	6.61019554157573e-07	2.410718152011382e-07
1.52	-0.450623719611583	0.01962369278840422	0.8054470998791428	1.056047087183417	-0.3435302440462932	-0.0914548482052558	-0.3234281346267584	0.6413906964842945	0.6413906964842729	-0.04013274054654974	-0.158135198584929	0.1426344251682698	0.1237018529946909	0.8699773165483001	0.3690977746858791	0.4451421728601361	-2.598085838193489	0.04171415054733636	-0.5314208099747699	0.6398201354571647	-1.85026130113246	-1.850261301132434	-0.1749438597683953	0.08546656434292435	-0.2422055722757545	-0.02889933179025126	-0.1657802223999293	0.06539338505855863	0.004624234493591444	-0.07610522494788936	-0.01533489163941464	-0.02008903446051322	0.1427250971555247	-30.24788254405799	11.84709124824876	0.3131978445062443	-1.090288749555299	-424.6359918290912	-27.67039611521946	-16.91241067858682	0.5896719309033048	0.586994394686436	-0.7407500074749651	-1.043443725537472	0.3288984942605163	0.08634826965788481	1.578332040385404	-0.5411580535813436	-0.5411580535813425	-0.2337755715381041	0.4113755772135993	-0.06176190309302647	0.3584440756077905	-2.297865351680444e-07	3.433169583766426e-06	1.102220818386078e-06	5.655167875677111e-07	1.243538147517942e-07	6.78200324361617e-07	1.854686436236536e-07
1.53	-0.441895278853782	0.02334349427117855	0.8098606660672324	1.030016732106243	-0.3430973165921786	-0.09676974187638419	-0.3169529255072468	0.6228632038009539	0.6228632038009556	-0.04189206866304746	-0.1572653475813945	0.1402095325261133	0.1234301462382644	0.8755596058594635	0.3747999801665596	0.4374826517381001	-2.607605110390554	0.04486912089705865	-0.5315187257762775	0.6551042616049723	-1.854984054160964	-1.854984054160964	-0.1768898434113923	0.08848325320536977	-0.2427308170817603	-0.0254340186392694	-0.1596184254907672	0.0639520471310788	0.005190334172475688	-0.07491876559711221	-0.01548310924657645	-0.02101290209278325	0.1380023510973833	-30.19412982145326	12.11015270301237	0.418336690099635	-0.7893178830937403	-421.4559930411427	-27.70961915515297	-17.58762639386715	0.5198019282899915	0.5525672238707466	-0.791797480591826	-0.8491831230229413	0.3078477293401556	-0.05182693982803338	1.485838875393795	-0.3998891901935544	-0.3998891901976533	-0.1695634604776434	0.2439383009028849	-0.04148966269759419	0.3410779946076003	-2.512395188774706e-07	3.476831493829954e-06	1.204821150669924e-06	5.712141426937678e-07	1.007955966139875e-07	6.654184033493432e-07	1.704044803989801e-07
1.54	-0.4331155563034655	0.02711846452857935	0.8141949881808964	1.003902581475846	-0.3426330291497281	-0.1020844077924992	-0.3103283979315746	0.6042960725348121	0.6042960725348037	-0.04366976735607925	-0.156365905137135	0.1377806706572279	0.1231931932253047	0.8802336750533885	0.3801315296111698	0.4292933579752243	-2.614844948836931	0.04798614820723014	-0.5313752589686791	0.6696838266894786	-1.85818901769781	-1.858189017697836	-0.1786179750462647	0.09138485247352462	-0.242999417621483	-0.0219485830977145	-0.1534566285815696	0.06251070920362316	0.005756433850805643	-0.07373230624628868	-0.01563132685370338	-0.02193676972500833	0.1332796050392658	-30.14319202627301	12.37574726096143	0.5207408079625024	-0.476219127787782	-418.3107451345559	-27.7551865397336	-18.24349083694064	0.4080279074551154	0.5128631874729318	-0.8467045356428562	-0.5875569753999237	0.3213098863503503	0.1346247914789714	1.43741982772474	-0.2376001552501913	-0.2376001552501944	-0.1902051699132282	0.3883576583554433	-0.01043304983573187	0.3624685537225878	-2.36626835839282e-07	3.339924714102453e-06	1.02723427816477e-06	5.428161753326352e-07	1.234014214537833e-07	6.664946316812643e-07	1.761046755464952e-07
